<?xml version="1.0" encoding="UTF-8"?>
<svg id="Capa_1" data-name="Capa 1" xmlns="http://www.w3.org/2000/svg" viewBox="0 0 217.7 91.21">
  <g>
    <path d="m4.65,66.68V13.36h20.62c8.96,0,15.66,2.66,20.12,7.97s6.68,11.46,6.68,18.44c0,7.97-2.39,14.45-7.17,19.43-4.78,4.99-10.98,7.48-18.61,7.48H4.65Zm16.37-12.27h4.26c2.71,0,4.99-1.31,6.86-3.95,1.86-2.63,2.79-6.21,2.79-10.74,0-3.88-.83-7.23-2.48-10.04-1.65-2.81-4.04-4.22-7.17-4.22h-4.26v28.95Z" fill="#fff"/>
    <path d="m77.85,67.5c-6.59,0-11.82-2.05-15.7-6.15-3.88-4.1-5.82-8.91-5.82-14.43,0-5.94,2.02-10.88,6.07-14.84,4.05-3.96,9.32-5.94,15.8-5.94s11.79,1.95,15.76,5.86c3.97,3.91,5.96,8.8,5.96,14.69s-2.01,10.89-6.04,14.86c-4.02,3.97-9.37,5.96-16.04,5.96Zm.23-9.45c2.42,0,3.9-1.26,4.43-3.77.53-2.51.8-5.14.8-7.87,0-3.72-.38-6.41-1.13-8.05-.76-1.64-2.11-2.46-4.06-2.46-1.8,0-3.11.85-3.95,2.54-.83,1.69-1.25,4.48-1.25,8.36,0,4.56.43,7.57,1.29,9.04.86,1.47,2.15,2.21,3.87,2.21Z" fill="#fff"/>
    <path d="m144.77,66.68h-15.59v-25c0-2.06-.32-3.37-.96-3.95-.64-.57-1.44-.86-2.4-.86-2.84,0-4.26,1.98-4.26,5.94v23.87h-15.59V26.95h14.45v5.62c2.13-4.3,5.95-6.45,11.45-6.45,2.89,0,5.33.55,7.32,1.66,1.99,1.11,3.42,2.54,4.28,4.3s1.29,4.81,1.29,9.16v25.43Z" fill="#fff"/>
    <path d="m179.22,52.42l14.53.98c-.86,3.91-3.05,7.23-6.58,9.98-3.53,2.75-8.3,4.12-14.32,4.12-6.69,0-12.03-1.93-16.02-5.8s-5.98-8.67-5.98-14.39,1.97-10.95,5.9-15.04c3.93-4.09,9.18-6.13,15.74-6.13s11.49,1.93,15.41,5.78c3.92,3.85,5.88,9.1,5.88,15.74,0,.55-.01,1.3-.04,2.27h-26.6c.05,2.5.49,4.36,1.33,5.57.83,1.21,2.42,1.82,4.77,1.82,3.38,0,5.38-1.63,5.98-4.88Zm-1.05-10.31c-.03-2.68-.56-4.49-1.62-5.41-1.05-.92-2.35-1.39-3.91-1.39-3.69,0-5.53,2.27-5.53,6.8h11.05Z" fill="#fff"/>
  </g>
  <polyline points="199.18 13.32 217.7 13.32 213.25 48.67 203.36 48.67 199.18 14" fill="#fff"/>
  <path d="m201.23,31c0,.06,14.24,0,14.24,0l-2.23,17.68h-10.48l-1.53-17.68Z" fill="#fff"/>
  <rect x="200.81" y="52.25" width="15.08" height="14.26" fill="#fff"/>
</svg>